<?xml version="1.0" encoding="UTF-8" standalone="no"?>
<svg
   xmlns:dc="http://purl.org/dc/elements/1.1/"
   xmlns:cc="http://creativecommons.org/ns#"
   xmlns:rdf="http://www.w3.org/1999/02/22-rdf-syntax-ns#"
   xmlns:svg="http://www.w3.org/2000/svg"
   xmlns="http://www.w3.org/2000/svg"
   xmlns:sodipodi="http://sodipodi.sourceforge.net/DTD/sodipodi-0.dtd"
   xmlns:inkscape="http://www.inkscape.org/namespaces/inkscape"
   height="100px"
   width="100px"
   fill="#0059B3"
   data-name="Layer 1"
   viewBox="0 0 100 100"
   x="0px"
   y="0px"
   version="1.1"
   id="svg10"
   sodipodi:docname="unitynuget.svg"
   inkscape:version="0.92.4 (5da689c313, 2019-01-14)"
   inkscape:export-filename="C:\work\UnityNuGet\img\unitynuget.png"
   inkscape:export-xdpi="491.51999"
   inkscape:export-ydpi="491.51999">
  <metadata
     id="metadata16">
    <rdf:RDF>
      <cc:Work
         rdf:about="">
        <dc:format>image/svg+xml</dc:format>
        <dc:type
           rdf:resource="http://purl.org/dc/dcmitype/StillImage" />
      </cc:Work>
    </rdf:RDF>
  </metadata>
  <defs
     id="defs14" />
  <sodipodi:namedview
     pagecolor="#ffffff"
     bordercolor="#666666"
     borderopacity="1"
     objecttolerance="10"
     gridtolerance="10"
     guidetolerance="10"
     inkscape:pageopacity="0"
     inkscape:pageshadow="2"
     inkscape:window-width="3128"
     inkscape:window-height="1766"
     id="namedview12"
     showgrid="false"
     inkscape:zoom="6.675088"
     inkscape:cx="34.226223"
     inkscape:cy="61.421068"
     inkscape:window-x="0"
     inkscape:window-y="0"
     inkscape:window-maximized="0"
     inkscape:current-layer="svg10" />
  <title
     id="title2">Artboard 20</title>
  <path
     d="M78.32,48.25V18.43a2.49,2.49,0,0,0-1.24-2.15L51.24,1.36a2.49,2.49,0,0,0-2.49,0L22.93,16.27a2.49,2.49,0,0,0-1.24,2.15V48.25a2.49,2.49,0,0,0,1.24,2.15L48.76,65.32a2.49,2.49,0,0,0,2.49,0L77.07,50.4A2.49,2.49,0,0,0,78.32,48.25ZM50,6.39l20.85,12-7.6,4.39-20.85-12Zm0,24.08-20.85-12,8.28-4.78,20.85,12ZM26.66,22.73l20.85,12V58.85l-20.85-12ZM52.49,58.85V34.77l20.85-12V46.81Z"
     id="path4"
     style="fill:#4d4d4d" />
  <path
     d="M96.28,33.91a7.59,7.59,0,0,0-12.52,5.78V54.77a7.62,7.62,0,0,0-1.62-.36A7.53,7.53,0,0,0,76,56.58l-18.5,18.5a13.68,13.68,0,0,0-4,9.74V96.49a2.49,2.49,0,1,0,5,0V84.81A8.74,8.74,0,0,1,61,78.59l18.5-18.5a2.59,2.59,0,0,1,3.66,3.66L72.43,74.48A2.49,2.49,0,0,0,75.95,78L86.67,67.27a7.53,7.53,0,0,0,2.22-5.54s0-.08,0-.13l-.16-21.92a2.61,2.61,0,0,1,2.2-2.58,2.62,2.62,0,0,1,3,2.58v28a10.58,10.58,0,0,1-3.12,7.53L76,90.15a2.49,2.49,0,0,0-.73,1.76v4.58a2.49,2.49,0,1,0,5,0V92.94L94.37,78.78a15.52,15.52,0,0,0,4.57-11v-28A7.58,7.58,0,0,0,96.28,33.91Z"
     id="path6" />
  <path
     d="M19.78,92.94v3.55a2.49,2.49,0,0,0,5,0V91.91A2.49,2.49,0,0,0,24,90.15L9.14,75.26A10.58,10.58,0,0,1,6,67.73v-28a2.62,2.62,0,0,1,3-2.58,2.61,2.61,0,0,1,2.2,2.58L11.11,61.8h0a7.53,7.53,0,0,0,2.23,5.46L24.05,78a2.49,2.49,0,1,0,3.52-3.52L16.85,63.75a2.59,2.59,0,0,1,3.66-3.66L39,78.59a8.74,8.74,0,0,1,2.58,6.22V96.49a2.49,2.49,0,1,0,5,0V84.81a13.68,13.68,0,0,0-4-9.74L24,56.58a7.52,7.52,0,0,0-6.17-2.17,7.62,7.62,0,0,0-1.62.36V39.69a7.59,7.59,0,0,0-15.18,0v28a15.52,15.52,0,0,0,4.57,11Z"
     id="path8" />
</svg>
